<svg width="14" height="13" viewBox="0 0 14 13" fill="none" xmlns="http://www.w3.org/2000/svg">
<path d="M4.38415 0.965017C4.21593 1.0323 4.12535 1.185 4.12535 1.40239V1.55767H3.30496C2.3474 1.55767 2.24388 1.5732 1.8738 1.75436C1.53218 1.92516 1.28373 2.17361 1.11292 2.51523C0.900709 2.94483 0.913649 2.65239 0.921413 7.01316L0.929177 10.8874L0.9887 11.0686C1.08963 11.3636 1.21644 11.568 1.44419 11.7932C1.68487 12.0339 1.92038 12.1685 2.22576 12.2461C2.41986 12.2979 2.53373 12.2979 7.12743 12.2979C11.7211 12.2979 11.835 12.2979 12.0291 12.2461C12.3345 12.1685 12.57 12.0339 12.8107 11.7932C13.0384 11.568 13.1652 11.3636 13.2662 11.0686L13.3257 10.8874L13.3334 7.01316C13.3412 2.65239 13.3541 2.94483 13.1419 2.51523C12.9711 2.17361 12.7227 1.92516 12.3811 1.75436C12.011 1.5732 11.9075 1.55767 10.9525 1.55767H10.1295V1.39204C10.1295 1.21346 10.0777 1.10477 9.94317 1.00642C9.83706 0.926197 9.64814 0.921021 9.52391 0.993485C9.38675 1.07371 9.32464 1.18758 9.30652 1.38945L9.29358 1.55767H7.12743H4.96127L4.94833 1.39204C4.93798 1.28334 4.91469 1.19276 4.87587 1.13065C4.77753 0.970193 4.55755 0.897729 4.38415 0.965017ZM4.12535 2.55146C4.12535 2.67827 4.13829 2.73262 4.18488 2.79991C4.31686 2.99401 4.52131 3.05612 4.71283 2.95777C4.85775 2.88531 4.93022 2.7585 4.94833 2.55146L4.96127 2.38583H7.12743H9.29358L9.30652 2.55146C9.32464 2.7585 9.3971 2.88531 9.54203 2.95777C9.73354 3.05612 9.93799 2.99401 10.0726 2.79991C10.1166 2.73262 10.1295 2.67827 10.1295 2.54887V2.38324L10.9784 2.391L11.8246 2.39877L11.9722 2.46864C12.1611 2.55663 12.3397 2.73521 12.4276 2.92413C12.4949 3.06906 12.4975 3.08459 12.5053 3.67206L12.5156 4.27506H7.12743H1.73922L1.74957 3.67206C1.75734 3.08459 1.75992 3.06906 1.82721 2.92413C1.94367 2.67568 2.18435 2.47382 2.43539 2.4143C2.48974 2.40135 2.89088 2.391 3.33084 2.38842L4.12535 2.38583V2.55146ZM12.5053 7.95519L12.4975 10.8098L12.4276 10.9573C12.3397 11.1462 12.1611 11.3248 11.9722 11.4128L11.8246 11.4826H7.12743H2.43021L2.27752 11.4076C2.08083 11.3118 1.9152 11.1462 1.82721 10.9573L1.75734 10.8098L1.74957 7.95519L1.7444 5.10322H7.12743H12.5105L12.5053 7.95519Z" fill="black"/>
</svg>
