<svg width="11" height="11" viewBox="0 0 11 11" fill="none" xmlns="http://www.w3.org/2000/svg">
<path fill-rule="evenodd" clip-rule="evenodd" d="M6.36189 0.0493494C6.07696 0.0923962 5.71395 0.226577 5.4277 0.39476C5.21627 0.518998 4.81134 0.909907 2.70229 3.02597C-0.146847 5.88456 0.00131492 5.70526 0.00131492 6.29477C0.00131492 6.85959 -0.0811887 6.75496 2.05134 8.8947C4.20465 11.0553 4.09991 10.973 4.69535 10.973C5.30043 10.973 5.08623 11.1502 7.96191 8.2704C10.5455 5.6831 10.6091 5.6132 10.7845 5.16782C10.953 4.73973 10.9648 4.56958 10.9542 2.72184L10.9443 0.995034L10.8312 0.765508C10.6911 0.481026 10.4183 0.221882 10.1416 0.110312C9.94427 0.030812 9.93378 0.0303287 8.25167 0.024909C7.32135 0.0219057 6.47094 0.0328832 6.36189 0.0493494ZM9.85801 0.962688C10.0708 1.0727 10.0686 1.05103 10.0571 2.94012L10.0467 4.65578L9.91293 4.93194C9.78127 5.20365 9.74016 5.24697 7.36443 7.61634C6.03637 8.94089 4.90244 10.0491 4.84462 10.079C4.59973 10.2056 4.64116 10.2398 2.73467 8.33844C1.76983 7.37622 0.958184 6.54697 0.930982 6.49571C0.903814 6.44441 0.881583 6.33616 0.881583 6.2551V6.10774L3.32224 3.66546C5.89314 1.09286 5.90961 1.07806 6.32944 0.963137C6.44923 0.930377 6.91446 0.917777 8.12395 0.914601C9.52174 0.910942 9.77133 0.917846 9.85801 0.962688ZM7.41176 1.8743C6.49556 2.21512 6.2556 3.37487 6.9642 4.03766C7.59758 4.63013 8.60778 4.45218 9.00822 3.67761C9.04095 3.61426 9.08889 3.46144 9.11472 3.33803C9.22943 2.78978 8.95295 2.2213 8.43819 1.94693C8.24922 1.8462 8.18439 1.83053 7.9093 1.819C7.65834 1.80847 7.55909 1.81952 7.41176 1.8743ZM7.99001 2.72557C8.29841 2.84895 8.34267 3.21635 8.07462 3.42789C7.93712 3.53642 7.68136 3.51433 7.54956 3.38253C7.47279 3.30576 7.45771 3.26005 7.45771 3.10436C7.45771 2.89137 7.54767 2.7613 7.73197 2.70773C7.78996 2.69088 7.84098 2.67569 7.84537 2.67396C7.84972 2.67227 7.91482 2.69547 7.99001 2.72557Z" fill="#1E1E1E"/>
</svg>
